<svg xmlns="http://www.w3.org/2000/svg" width="432" height="414"><path d="M360 180v198m0-234V36m-36 153v135m0-171v18m0-36V36m-36 270v72m0-180v90m0-162V36m0 117v27m-36 27v63m0-126v45m0-72V36m-36 216v72m0-108v18m0-99v63m0-81V36m-36 72V36m0 90v90m-72-90V36m0 108v72m288-54V36m-252 72V36M72 162V36M36 216V36" fill="none" stroke="#000" stroke-dasharray="3"/><path d="M252 270l72 54m-36 54l36-54 36 54M72 162l72-54 252 54-216 54 72 54-36 54M36 216l36-54 36 54" fill="none" stroke="#E4BC96" stroke-width="4"/><g fill="#FFFFF5" stroke="#8B5C29" stroke-width="2"><circle cx="144" cy="108" r="18"/><circle cx="72" cy="161.999" r="18"/><circle cx="396" cy="161.999" r="18"/><circle cx="180" cy="216" r="18"/><circle cx="108" cy="216" r="18"/><circle cx="36" cy="216" r="18"/><circle cx="252" cy="270" r="18"/><circle cx="216" cy="324" r="18"/><circle cx="324" cy="324" r="18"/><circle cx="288" cy="378" r="18"/><circle cx="360" cy="378" r="18"/></g><path fill="#FAFFFF" stroke="#0060B6" stroke-width="2" d="M18 18h396v36H18z"/><g font-family="Times" font-size="21"><text transform="translate(30.75 43)">9</text><text transform="translate(30.75 223)">9</text><text transform="translate(66.75 43)">3</text><text transform="translate(66.75 169)">3</text><text transform="translate(102.75 43)">7</text><text transform="translate(102.75 223)">7</text><text transform="translate(138.75 43)">1</text><text transform="translate(138.75 115)">1</text><text transform="translate(174.75 43)">8</text><text transform="translate(174.75 223)">8</text><text transform="translate(205.5 43)">12</text><text transform="translate(205.5 331)">12</text><text transform="translate(241.5 43)">10</text><text transform="translate(241.5 277)">10</text><text transform="translate(277.5 43)">20</text><text transform="translate(313.5 43)">15</text><text transform="translate(313.5 331)">15</text><text transform="translate(349.5 43)">18</text><text transform="translate(277.5 385)">20</text><text transform="translate(349.5 385)">18</text><text transform="translate(390.75 43)">5</text><text transform="translate(390.75 169)">5</text></g><path d="M54 18v36m36-36v36m36-36v36m36-36v36m36-36v36m36-36v36m36-36v36m36-36v36m36-36v36m36-36v36" fill="none" stroke="#0060B6" stroke-width="2"/></svg>